<?xml version="1.0" encoding="UTF-8" standalone="no" ?>
<!DOCTYPE svg PUBLIC "-//W3C//DTD SVG 1.1//EN" "http://www.w3.org/Graphics/SVG/1.1/DTD/svg11.dtd">
<svg xmlns="http://www.w3.org/2000/svg" xmlns:xlink="http://www.w3.org/1999/xlink" version="1.1" width="350" height="350" viewBox="0 0 350 350" xml:space="preserve">
<desc>Created with Fabric.js 1.7.22</desc>
<defs>
</defs>
<g id="icon" style="stroke: none; stroke-width: 1; stroke-dasharray: none; stroke-linecap: butt; stroke-linejoin: miter; stroke-miterlimit: 10; fill: none; fill-rule: nonzero; opacity: 1;" transform="translate(-1.9444444444444287 -1.9444444444444287) scale(3.89 3.89)" >
	<path d="M 71.478 90 H 1 c -0.275 0 -0.538 -0.113 -0.727 -0.313 s -0.287 -0.47 -0.271 -0.744 l 4.563 -78.893 C 4.596 9.52 5.034 9.107 5.563 9.107 h 61.351 c 0.53 0 0.968 0.413 0.998 0.942 l 4.563 78.893 c 0.017 0.274 -0.082 0.544 -0.271 0.744 C 72.016 89.887 71.753 90 71.478 90 z M 2.06 88 h 68.358 l -4.447 -76.893 H 6.507 L 2.06 88 z" style="stroke: none; stroke-width: 1; stroke-dasharray: none; stroke-linecap: butt; stroke-linejoin: miter; stroke-miterlimit: 10; fill: rgb(0,0,0); fill-rule: nonzero; opacity: 1;" transform=" matrix(1 0 0 1 0 0) " stroke-linecap="round" />
	<path d="M 36.239 58.39 c -10.363 0 -18.794 -8.436 -18.794 -18.805 V 29.116 c 0 -0.552 0.448 -1 1 -1 s 1 0.448 1 1 v 10.468 c 0 9.266 7.534 16.805 16.794 16.805 s 16.794 -7.539 16.794 -16.805 V 29.116 c 0 -0.552 0.447 -1 1 -1 s 1 0.448 1 1 v 10.468 C 55.033 49.954 46.603 58.39 36.239 58.39 z" style="stroke: none; stroke-width: 1; stroke-dasharray: none; stroke-linecap: butt; stroke-linejoin: miter; stroke-miterlimit: 10; fill: rgb(0,0,0); fill-rule: nonzero; opacity: 1;" transform=" matrix(1 0 0 1 0 0) " stroke-linecap="round" />
	<path d="M 71.478 90 c -0.109 0 -0.22 -0.018 -0.326 -0.055 c -0.384 -0.133 -0.648 -0.482 -0.672 -0.888 l -4.563 -78.893 c -0.021 -0.354 0.147 -0.691 0.441 -0.888 c 0.296 -0.196 0.67 -0.224 0.99 -0.071 l 8.038 3.863 l 5.323 -12.462 c 0.179 -0.418 0.616 -0.663 1.067 -0.596 c 0.45 0.067 0.798 0.43 0.847 0.882 l 7.371 68.132 c 0.03 0.279 -0.059 0.559 -0.244 0.769 L 72.228 89.661 C 72.034 89.881 71.76 90 71.478 90 z M 68.011 11.743 l 4.325 74.772 l 15.622 -17.715 L 81.046 4.91 l -4.231 9.906 c -0.107 0.251 -0.313 0.447 -0.568 0.543 c -0.255 0.096 -0.539 0.083 -0.785 -0.035 L 68.011 11.743 z" style="stroke: none; stroke-width: 1; stroke-dasharray: none; stroke-linecap: butt; stroke-linejoin: miter; stroke-miterlimit: 10; fill: rgb(0,0,0); fill-rule: nonzero; opacity: 1;" transform=" matrix(1 0 0 1 0 0) " stroke-linecap="round" />
	<path d="M 81.629 2 H 21.283 c -0.552 0 -1 -0.448 -1 -1 s 0.448 -1 1 -1 h 60.346 c 0.553 0 1 0.448 1 1 S 82.182 2 81.629 2 z" style="stroke: none; stroke-width: 1; stroke-dasharray: none; stroke-linecap: butt; stroke-linejoin: miter; stroke-miterlimit: 10; fill: rgb(0,0,0); fill-rule: nonzero; opacity: 1;" transform=" matrix(1 0 0 1 0 0) " stroke-linecap="round" />
	<path d="M 23.754 30.116 h -10.62 c -0.552 0 -1 -0.448 -1 -1 s 0.448 -1 1 -1 h 10.62 c 0.552 0 1 0.448 1 1 S 24.307 30.116 23.754 30.116 z" style="stroke: none; stroke-width: 1; stroke-dasharray: none; stroke-linecap: butt; stroke-linejoin: miter; stroke-miterlimit: 10; fill: rgb(0,0,0); fill-rule: nonzero; opacity: 1;" transform=" matrix(1 0 0 1 0 0) " stroke-linecap="round" />
	<path d="M 59.343 30.116 h -10.62 c -0.553 0 -1 -0.448 -1 -1 s 0.447 -1 1 -1 h 10.62 c 0.553 0 1 0.448 1 1 S 59.896 30.116 59.343 30.116 z" style="stroke: none; stroke-width: 1; stroke-dasharray: none; stroke-linecap: butt; stroke-linejoin: miter; stroke-miterlimit: 10; fill: rgb(0,0,0); fill-rule: nonzero; opacity: 1;" transform=" matrix(1 0 0 1 0 0) " stroke-linecap="round" />
	<path d="M 16.236 11.107 c -0.164 0 -0.33 -0.04 -0.484 -0.125 c -0.483 -0.268 -0.658 -0.876 -0.39 -1.359 l 5.046 -9.107 c 0.268 -0.482 0.876 -0.657 1.359 -0.39 c 0.483 0.268 0.658 0.876 0.39 1.359 l -5.046 9.107 C 16.929 10.921 16.588 11.107 16.236 11.107 z" style="stroke: none; stroke-width: 1; stroke-dasharray: none; stroke-linecap: butt; stroke-linejoin: miter; stroke-miterlimit: 10; fill: rgb(0,0,0); fill-rule: nonzero; opacity: 1;" transform=" matrix(1 0 0 1 0 0) " stroke-linecap="round" />
</g>
</svg>